<?xml version="1.0" encoding="utf-8"?>
<!-- Generator: Adobe Illustrator 25.2.0, SVG Export Plug-In . SVG Version: 6.00 Build 0)  -->
<svg version="1.1" id="Layer_1" xmlns="http://www.w3.org/2000/svg" xmlns:xlink="http://www.w3.org/1999/xlink" x="0px" y="0px"
	 viewBox="0 0 24 24" style="enable-background:new 0 0 24 24;" xml:space="preserve">
<style type="text/css">
	.st0{fill:#382923;}
</style>
<path class="st0" d="M17.1,0c-0.6,0-1.2,0.2-1.7,0.6c-1.1,0.6-2,1.5-2.7,2.5c-0.4,0-0.9,0-1.3,0c-0.3,0-0.8,0.2-0.6,1
	c0.2,0.8,0.8,1.5,0.8,1.9c-0.1,0.3-0.1,0.5-0.1,0.8c-0.3,0.5-1.7,2.7-2.1,4.5c0,0,0.8-8-1.6-9.3C5.2,0.6,3.2,1.7,2.6,3.5
	c-1.4,3.8,0.7,9.8,3.6,14.7c2.9,4.8,5.7,5.7,7.7,5.8c3.3,0.1,2.3-0.6,3.5-0.6c1.2-0.1,1,0.6,3,0.4c1.4-0.2,1.7-1.2,1.1-1.6
	c-0.5-0.4-0.4-1.5,0.2-3.7s-0.2-6.2-0.7-7.2S20.4,9.7,21,8.7c0.5-0.8,0.7-1.6,0.8-2.5c0-0.3,0-0.7,0-1c0,0,0,0,0,0V5.1
	c0,0-0.3,1.4-1,1.9c-0.1,0.1-0.2,0.2-0.3,0.2c0.1-0.3,0.3-1.3,0-1.9c0,0-0.2,2.5-1.5,2.6c-1.3,0.1-3.2-1.2-3.7-1.8
	c0,0.2,0.1,0.3,0.1,0.4c0,0.2,0.1,0.3,0.2,0.4c0.2,0.6,0.4,1.5,0.1,2.1c-0.5,0.9-1.5,2.3-1.4,4.3c0,1.2,0.3,2.4,0.8,3.5
	c0.4,1,0.5,1.9,0.4,2.1c-0.1,0.2,0,1-1.8-0.4c-1.8-1.4-2.3-2.8-2.3-2.8c-0.3,0.8-0.4,1.6-0.3,2.5c0.1,1.2,0.4,2.4,0.8,3.6
	c0,0-2.4-2-2.5-5.9c-0.1-3.6,2-7.8,2.3-8.4c0.1,0.1,0.2,0.3,0.3,0.4C11.9,8,12.1,8,12.2,8.1c0,0-0.9-0.5-0.3-2.5
	c0.7-2,2.1-3.8,3.5-4.6c1.2-0.7,2.6-0.8,3.9-0.2C18.8,0.3,18.1,0,17.4,0C17.3,0,17.2,0,17.1,0z M15.7,1.9c-0.1,0-0.1,0-0.2,0
	c-0.4,0.1-0.5,0.5-0.3,1c0,0.1,0.1,0.2,0.1,0.4c0,0.1,0,0.2-0.1,0.4c0.3-0.3,0.6-0.5,0.9-0.7c0.4-0.2,0.8-0.4,1.2-0.4
	c-0.3,0-0.5-0.1-0.7-0.2c-0.1-0.1-0.3-0.3-0.5-0.3C16,1.9,15.8,1.9,15.7,1.9z M20.6,2c-0.5,0-1.2,0.1-1.7,0.3
	c-0.3,0.1-0.6,0.3-0.8,0.6c-0.3,0.6,1.4,1.7,2.1,1.5c0.3-0.1,0.8-0.8,1-1.4c0.1-0.4,0.2-0.8-0.1-0.9C21,2.1,20.8,2,20.6,2z
	 M20.8,7.4c0,0-0.3,1.2-0.6,1.7c-0.2,0.5-0.3,0.4-0.4,0.5c0.1-0.2,0.1-0.4,0.2-0.7c0.1-0.4,0-0.5,0-0.5c-0.1,0.5-0.2,0.9-0.5,1.3
	c-0.2,0.1-0.4,0.1-0.6,0c-0.3-0.1-0.3-1.3-0.3-1.4c0.4,0,0.9,0,1.3-0.2C20.2,8,20.6,7.7,20.8,7.4L20.8,7.4z"/>
</svg>
