<?xml version="1.0" encoding="utf-8"?>
<!-- Generator: Adobe Illustrator 25.2.0, SVG Export Plug-In . SVG Version: 6.00 Build 0)  -->
<svg version="1.1" id="Layer_1" xmlns="http://www.w3.org/2000/svg" xmlns:xlink="http://www.w3.org/1999/xlink" x="0px" y="0px"
	 viewBox="0 0 24 24" style="enable-background:new 0 0 24 24;" xml:space="preserve">
<style type="text/css">
	.st0{fill:#646CFF;}
</style>
<path class="st0" d="M8.3,10.6l0.5-8.7c0-0.1,0.1-0.3,0.2-0.3L17.4,0c0.2,0,0.3,0.1,0.4,0.2c0,0,0,0.1,0,0.1l-1.6,5.4
	c0,0.2,0,0.3,0.2,0.4c0,0,0.1,0,0.1,0l2.4-0.5c0.2,0,0.3,0.1,0.4,0.2c0,0.1,0,0.1,0,0.2l-6.8,13.6l-0.1,0.2C12.3,20,12.2,20,12.1,20
	c-0.2,0-0.4-0.2-0.3-0.4l1.1-5.3c0-0.2-0.1-0.3-0.2-0.4c0,0-0.1,0-0.2,0L11,14.4c-0.2,0-0.3,0-0.4-0.2c0,0,0-0.1,0-0.2l0.7-3.4
	c0-0.2-0.1-0.3-0.2-0.4c0,0-0.1,0-0.1,0l-2.3,0.5C8.5,10.9,8.3,10.8,8.3,10.6C8.3,10.6,8.3,10.6,8.3,10.6L8.3,10.6z M23.3,2.7
	l-6,1.1l-0.5,1.9l2.1-0.4c0.3-0.1,0.7,0.1,0.8,0.4c0.1,0.2,0.2,0.5,0,0.8l-6.8,13.6l0,0l0,0l-0.1,0.2c-0.1,0.2-0.4,0.4-0.7,0.4
	c-0.2,0-0.5-0.1-0.6-0.3c-0.2-0.2-0.2-0.4-0.2-0.7l1-5l-1.1,0.3c-0.3,0.1-0.7,0-0.9-0.3c-0.2-0.2-0.2-0.4-0.2-0.7l0.6-3.1l-2,0.5
	c-0.3,0.1-0.6,0-0.8-0.2c-0.2-0.2-0.2-0.4-0.2-0.6L8.2,4L0.7,2.6C0.4,2.6,0.1,2.8,0,3.1c0,0.1,0,0.3,0.1,0.4l11.5,20.1
	c0.2,0.3,0.5,0.4,0.8,0.2c0.1-0.1,0.2-0.1,0.2-0.2L23.9,3.6c0.2-0.3,0.1-0.7-0.2-0.8C23.5,2.7,23.4,2.6,23.3,2.7z"/>
</svg>
