<svg width="24" height="14" viewBox="0 0 24 14" fill="none" xmlns="http://www.w3.org/2000/svg">
<path d="M24 13.588C23.6507 13.7201 23.2651 13.7198 22.916 13.5872C22.5669 13.4545 22.2785 13.1987 22.105 12.868L18.655 8.097L18.155 7.43L14.152 12.874C13.989 13.1909 13.7162 13.4375 13.3845 13.5678C13.0529 13.6981 12.6851 13.7031 12.35 13.582L17.508 6.662L12.71 0.411C13.055 0.286675 13.4323 0.285027 13.7784 0.406333C14.1244 0.527639 14.4181 0.764489 14.61 1.077L18.186 5.907L21.782 1.097C21.9463 0.785787 22.2192 0.545788 22.5488 0.422629C22.8785 0.299469 23.2419 0.301737 23.57 0.429L21.708 2.9L19.186 6.183C19.116 6.24548 19.0599 6.32205 19.0216 6.4077C18.9832 6.49335 18.9633 6.58615 18.9633 6.68C18.9633 6.77385 18.9832 6.86665 19.0216 6.9523C19.0599 7.03795 19.116 7.11452 19.186 7.177L23.99 13.589L24 13.588ZM0.002012 6.576L0.422012 4.501C1.57601 0.398001 6.28001 -1.309 9.51601 1.231C11.411 2.72 11.884 4.828 11.791 7.204H1.11601C0.943012 11.447 4.00501 14.009 7.92001 12.7C8.55467 12.4716 9.12275 12.0892 9.57337 11.5873C10.024 11.0854 10.3431 10.4795 10.502 9.824C10.709 9.158 11.05 9.044 11.676 9.236C11.5717 10.0484 11.2845 10.8265 10.8361 11.5119C10.3876 12.1973 9.78963 12.7721 9.08701 13.193C7.92643 13.8278 6.59484 14.0794 5.28264 13.9119C3.97043 13.7443 2.74481 13.1661 1.78101 12.26C0.828041 11.1874 0.252088 9.83249 0.141012 8.402C0.141012 8.167 0.061012 7.947 0.007012 7.736C0.00214403 7.34969 -0.000189357 6.96334 1.19963e-05 6.577L0.002012 6.576ZM1.12901 6.29H10.783C10.723 3.214 8.78201 1.032 6.19301 1.012C3.31101 0.972 1.24901 3.106 1.12201 6.276L1.12901 6.29Z" fill="white"/>
</svg>
