<?xml version="1.0" encoding="utf-8"?>
<!-- Generator: Adobe Illustrator 25.2.0, SVG Export Plug-In . SVG Version: 6.00 Build 0)  -->
<svg version="1.1" id="Layer_1" xmlns="http://www.w3.org/2000/svg" xmlns:xlink="http://www.w3.org/1999/xlink" x="0px" y="0px"
	 viewBox="0 0 24 24" style="enable-background:new 0 0 24 24;" xml:space="preserve">
<style type="text/css">
	.st0{fill:#F37626;}
</style>
<path class="st0" d="M7.2,22.2c0,1-0.8,1.8-1.8,1.8c-1,0-1.8-0.8-1.8-1.8s0.8-1.8,1.8-1.8C6.4,20.4,7.2,21.2,7.2,22.2z M20.6,1.4
	c0,0.8-0.6,1.4-1.4,1.4c0,0,0,0,0,0c-0.8,0-1.4-0.6-1.4-1.4c0,0,0,0,0,0c0-0.8,0.6-1.4,1.4-1.4c0,0,0,0,0,0
	C19.9,0,20.6,0.6,20.6,1.4C20.6,1.4,20.6,1.4,20.6,1.4z M5,3.3c0,0.6-0.5,1.1-1,1.1c-0.6,0-1-0.5-1-1.1c0-0.6,0.5-1.1,1-1.1
	C4.5,2.3,5,2.8,5,3.3z M12.3,4.9c3.8,0,7.1,1.4,8.8,3.4c-0.6-1.8-1.8-3.4-3.4-4.5C16.1,2.6,14.3,2,12.3,2c-1.9,0-3.8,0.6-5.4,1.7
	C5.4,4.9,4.2,6.4,3.6,8.3C5.3,6.2,8.6,4.9,12.3,4.9z M12.3,18.1c-3.8,0-7.1-1.4-8.8-3.4c0.6,1.8,1.8,3.4,3.4,4.5
	c1.6,1.1,3.4,1.7,5.4,1.7c1.9,0,3.8-0.6,5.4-1.7c1.6-1.1,2.8-2.7,3.4-4.5C19.4,16.8,16.1,18.1,12.3,18.1L12.3,18.1z"/>
</svg>
