<?xml version="1.0" encoding="utf-8"?>
<!-- Generator: Adobe Illustrator 25.2.0, SVG Export Plug-In . SVG Version: 6.00 Build 0)  -->
<svg version="1.1" id="Layer_1" xmlns="http://www.w3.org/2000/svg" xmlns:xlink="http://www.w3.org/1999/xlink" x="0px" y="0px"
	 viewBox="0 0 24 24" style="enable-background:new 0 0 24 24;" xml:space="preserve">
<style type="text/css">
	.st0{fill:#FFFFFF;}
</style>
<path class="st0" d="M19.5,4.8c1.2,2.6,0.9,5.7-0.4,8.2c-1.1,2-2.7,3.7-4.1,5.6c-0.6,0.9-1.2,1.8-1.7,2.7c-0.1,0.3-0.3,0.7-0.4,1
	c-0.1,0.3-0.2,0.7-0.3,1S12.4,24,12,24l0,0c-0.5,0-0.6-0.5-0.7-0.9c-0.3-0.9-0.6-1.7-1-2.5c-0.5-0.9-1.1-1.8-1.8-2.7L19.5,4.8z
	 M8.5,7.7l-4,4.7c0.7,1.5,1.8,2.9,2.9,4.2c0.2,0.3,0.5,0.6,0.7,0.9l5-5.9l0,0c-1.7,0.6-3.7-0.3-4.4-2c0-0.2-0.1-0.4-0.2-0.7
	C8.5,8.5,8.5,8.1,8.5,7.7L8.5,7.7z M5.5,3.1L5.5,3.1c-2,2.5-2.3,5.9-1.1,8.8l4.8-5.7H9.1L5.5,3.1z M14.7,0.4L10.8,5l0,0
	c1.6-0.6,3.4,0.2,4.2,1.6c0.2,0.3,0.3,0.7,0.4,1c0.1,0.4,0.1,0.8,0,1.2l0,0l3.8-4.6C18.3,2.5,16.6,1.1,14.7,0.4L14.7,0.4z M9.5,5.9
	l4.7-5.6l0,0C13.4,0.1,12.7,0,12,0C9.6,0,7.4,1,5.8,2.8l0,0L9.5,5.9z"/>
</svg>
