<?xml version="1.0" encoding="utf-8"?>
<!-- Generator: Adobe Illustrator 25.2.0, SVG Export Plug-In . SVG Version: 6.00 Build 0)  -->
<svg version="1.1" id="Layer_1" xmlns="http://www.w3.org/2000/svg" xmlns:xlink="http://www.w3.org/1999/xlink" x="0px" y="0px"
	 viewBox="0 0 24 24" style="enable-background:new 0 0 24 24;" xml:space="preserve">
<style type="text/css">
	.st0{fill:url(#SVGID_1_);}
</style>
<linearGradient id="SVGID_1_" gradientUnits="userSpaceOnUse" x1="1.9548" y1="21.9548" x2="21.9548" y2="1.9548">
	<stop  offset="0" style="stop-color:#F9CE34"/>
	<stop  offset="0.5112" style="stop-color:#EE2A7B"/>
	<stop  offset="1" style="stop-color:#6228D7"/>
</linearGradient>
<path class="st0" d="M7,0.1c-1.2,0-2.1,0.2-2.9,0.5C3.3,1,2.7,1.4,2,2C1.3,2.7,0.9,3.4,0.6,4.2C0.3,4.9,0.1,5.8,0.1,7.1S0,8.8,0,12
	c0,3.3,0,3.7,0.1,4.9c0.1,1.3,0.3,2.1,0.6,2.9C1,20.7,1.4,21.3,2,22c0.7,0.7,1.3,1.1,2.1,1.4S5.7,23.9,7,24c1.4,0,1.8,0,5,0
	c3.3,0,3.7,0,4.9-0.1c1.3-0.1,2.1-0.3,2.9-0.6c0.8-0.3,1.5-0.7,2.1-1.4c0.7-0.7,1.1-1.3,1.4-2.1c0.3-0.8,0.5-1.6,0.6-2.9
	S24,15.2,24,12c0-3.3,0-3.7-0.1-4.9S23.6,5,23.3,4.2C23,3.3,22.6,2.7,22,2c-0.7-0.7-1.3-1.1-2.1-1.4C19.1,0.3,18.3,0.1,17,0
	s-1.8,0-5,0C8.7,0,8.3,0,7,0.1 M7.2,21.8C6,21.7,5.4,21.6,5,21.4c-0.6-0.2-1-0.5-1.4-0.9s-0.7-0.8-0.9-1.4c-0.2-0.4-0.4-1.1-0.4-2.2
	c-0.1-1.3-0.1-1.6-0.1-4.8s0-3.6,0.1-4.8c0-1.2,0.2-1.8,0.4-2.2c0.2-0.6,0.5-1,0.9-1.4S4.4,3,5,2.8c0.3-0.3,1-0.5,2.1-0.6
	c1.3,0,1.7,0,4.9,0s3.6,0,4.8,0.1C18,2.4,18.6,2.5,19,2.7c0.6,0.2,1,0.5,1.4,0.9s0.7,0.8,0.9,1.4c0.2,0.4,0.4,1.1,0.4,2.2
	c0.1,1.3,0.1,1.6,0.1,4.8s0,3.6-0.1,4.8c-0.1,1.2-0.2,1.8-0.4,2.2c-0.2,0.6-0.5,1-0.9,1.4s-0.8,0.7-1.4,0.9
	c-0.4,0.2-1.1,0.4-2.2,0.4c-1.3,0.1-1.6,0.1-4.8,0.1S8.4,21.8,7.2,21.8 M17,5.6C17,6.4,17.6,7,18.4,7s1.4-0.6,1.4-1.4
	s-0.6-1.4-1.4-1.4l0,0C17.6,4.1,17,4.8,17,5.6 M5.8,12c0,3.4,2.8,6.2,6.2,6.1c3.4,0,6.2-2.8,6.2-6.2S15.4,5.7,12,5.8S5.8,8.6,5.8,12
	 M8,12c0-2.2,1.8-4,4-4s4,1.8,4,4s-1.8,4-4,4S8,14.2,8,12L8,12"/>
</svg>
