<?xml version="1.0" encoding="utf-8"?>
<!-- Generator: Adobe Illustrator 25.2.0, SVG Export Plug-In . SVG Version: 6.00 Build 0)  -->
<svg version="1.1" id="Layer_1" xmlns="http://www.w3.org/2000/svg" xmlns:xlink="http://www.w3.org/1999/xlink" x="0px" y="0px"
	 viewBox="0 0 12.1 11.2" style="enable-background:new 0 0 12.1 11.2;" xml:space="preserve">
<style type="text/css">
	.st0{fill:#797979;}
</style>
<path class="st0" d="M11.5,8c-0.3-0.1-1.8-0.9-2-1S9,6.8,8.8,7.1S8,8.1,7.9,8.3S7.5,8.5,7.2,8.4C6.3,8,5.5,7.5,4.8,6.9
	c-0.7-0.6-1.2-1.3-1.7-2C3,4.6,3.1,4.4,3.3,4.3s0.3-0.4,0.4-0.5C3.8,3.6,3.9,3.4,4,3.2c0.1-0.2,0.1-0.4,0-0.5C3.9,2.6,3.3,1.1,3,0.5
	S2.6,0,2.4,0H1.8C1.5,0,1.2,0.2,1,0.4C0.4,1,0,1.9,0,2.8C0.1,4,0.6,5,1.2,5.9c1.3,1.9,3,3.5,5.1,4.5C7,10.7,7.6,10.9,8,11
	c0.6,0.2,1.2,0.2,1.9,0.1c0.8-0.2,1.6-0.7,2-1.4c0.2-0.5,0.2-0.9,0.1-1.4C11.9,8.2,11.7,8.1,11.5,8"/>
</svg>
